<svg width="32" height="33" viewBox="0 0 32 33" fill="none" xmlns="http://www.w3.org/2000/svg">
<path d="M9.6 9.36943V7.34063C9.6 6.49193 9.93714 5.678 10.5373 5.07788C11.1374 4.47777 11.9513 4.14063 12.8 4.14062H19.2C20.0487 4.14063 20.8626 4.47777 21.4627 5.07788C22.0629 5.678 22.4 6.49193 22.4 7.34063V9.36943C22.8864 9.65028 23.2904 10.0542 23.5713 10.5407C23.8521 11.0271 24 11.5789 24 12.1406V13.7406C24.4243 13.7406 24.8313 13.9092 25.1314 14.2093C25.4314 14.5093 25.6 14.9163 25.6 15.3406V16.9406C25.6 17.365 25.4314 17.7719 25.1314 18.072C24.8313 18.3721 24.4243 18.5406 24 18.5406V21.7406C24 22.3023 23.8521 22.8541 23.5713 23.3406C23.2904 23.827 22.8864 24.231 22.4 24.5118V26.5406C22.4 27.3893 22.0629 28.2033 21.4627 28.8034C20.8626 29.4035 20.0487 29.7406 19.2 29.7406H12.8C11.9513 29.7406 11.1374 29.4035 10.5373 28.8034C9.93714 28.2033 9.6 27.3893 9.6 26.5406V24.5118C9.11355 24.231 8.7096 23.827 8.42874 23.3406C8.14788 22.8541 8.00001 22.3023 8 21.7406V12.1406C8.00001 11.5789 8.14788 11.0271 8.42874 10.5407C8.7096 10.0542 9.11355 9.65028 9.6 9.36943ZM12.8 5.74063C12.3757 5.74063 11.9687 5.9092 11.6686 6.20925C11.3686 6.50931 11.2 6.91628 11.2 7.34063V8.94063H20.8V7.34063C20.8 6.91628 20.6314 6.50931 20.3314 6.20925C20.0313 5.9092 19.6243 5.74063 19.2 5.74063H12.8ZM22.4 21.7406V12.1406C22.4 11.7163 22.2314 11.3093 21.9314 11.0093C21.6313 10.7092 21.2243 10.5406 20.8 10.5406H11.2C10.7757 10.5406 10.3687 10.7092 10.0686 11.0093C9.76857 11.3093 9.6 11.7163 9.6 12.1406V21.7406C9.6 22.1647 9.76835 22.5714 10.0681 22.8714C10.3678 23.1714 10.7743 23.3402 11.1984 23.3406H20.8C21.2243 23.3406 21.6313 23.1721 21.9314 22.872C22.2314 22.5719 22.4 22.165 22.4 21.7406ZM11.2 26.5406C11.2 26.965 11.3686 27.3719 11.6686 27.672C11.9687 27.9721 12.3757 28.1406 12.8 28.1406H19.2C19.6243 28.1406 20.0313 27.9721 20.3314 27.672C20.6314 27.3719 20.8 26.965 20.8 26.5406V24.9406H11.2V26.5406Z" fill="#00AD99"/>
</svg>
